<svg version="1.1" xmlns="http://www.w3.org/2000/svg" xmlns:xlink="http://www.w3.org/1999/xlink" width="210" height="270" viewBox="0 0 5000 5000" preserveAspectRatio="xMidYMid"><defs><pattern id="dotPattern" width="30" height="30" patternUnits="userSpaceOnUse"><circle cx="15" cy="15" r="2" stroke="black" stroke-width="2" fill="none"></circle></pattern><pattern id="horzLinePattern" width="30" height="20" patternUnits="userSpaceOnUse"><line x1="0" y1="10" x2="30" y2="5" stroke="black" stroke-width="2" fill="none"></line></pattern></defs><g transform="scale(2,2)"><path fill="none" stroke="black"  d=" M 755.5072 1801.6256 L 747.52 1773.7728000000002 L 739.1232 1738.3424 L 733.3888000000001 1707.8272000000002 L 731.1360000000001 1684.8896 L 727.0400000000001 1643.7248000000002 L 726.8352 1602.1504 L 730.7264 1537.6384 L 739.7376 1456.1280000000002 L 751.2064 1389.1584 L 759.1936000000001 1346.5600000000002 L 768.6144 1308.0576 L 779.8784 1271.1936 L 782.336 1262.3872000000001 L 783.5648 1258.0864000000001 L 785.2032 1253.9904000000001 L 790.3232 1239.04 L 797.696 1221.4272 L 805.0688 1204.4288000000001 L 812.032 1189.6832000000002 L 819.6096 1174.1184 L 832.1024 1148.7232000000001 L 863.4368000000001 1085.0304 L 876.3392 1059.6352 L 908.288 995.5328000000001 L 950.6816 909.312 L 994.7136 819.6096 L 1013.3504 769.4336000000001 L 1022.976 741.5808000000001 L 1030.9632000000001 715.9808 L 1038.7456 687.9232000000001 L 1044.0704 666.8288 M 939.6224000000001 4.9152000000000005 L 996.1472 232.03840000000002 L 1005.5680000000001 273.8176 L 1021.7472 336.896 L 1035.2640000000001 401.8176 L 1039.7696 431.71840000000003 L 1043.2512000000002 458.1376 L 1046.528 516.9152 L 1045.2992000000002 558.4896 L 1042.2272 601.9072 L 1037.9264 633.856 L 1032.192 665.1904000000001 L 1027.8912 683.6224000000001 L 1020.3136000000001 712.2944 L 1013.3504 737.0752 L 1003.9296 765.1328000000001 L 984.4736 818.176 L 942.8992000000001 906.24 L 912.9984000000001 962.3552000000001 L 859.7504 1052.2624 L 842.5472000000001 1082.1632 L 812.6464000000001 1141.3504 L 785.2032 1197.6704 L 770.2528000000001 1232.2816 L 754.688 1276.7232000000001 L 744.8576 1311.5392000000002 L 739.5328000000001 1347.9936 L 734.0032 1398.5792000000001 L 729.9072 1459.6096 L 724.7872 1536.8192000000001 L 720.8960000000001 1602.5600000000002 L 720.6912 1644.1344000000001 L 722.1248 1685.5040000000001 L 723.9680000000001 1708.4416 L 728.0640000000001 1739.776 L 733.7984 1776.4352000000001 L 740.5568000000001 1804.9024000000002" stroke-width="2" stroke-dasharray="3,3"></path><path fill="none" stroke="black"  d=" M 1192.3456 1901.7728000000002 L 1223.0656000000001 1891.5328000000002 L 1242.7264 1883.9552 L 1266.0736000000002 1876.1728 L 1293.1072000000001 1867.5712 L 1311.9488000000001 1861.4272 L 1360.4864 1848.3200000000002 L 1411.4816 1837.2608 L 1457.3568 1827.4304000000002 L 1536.4096000000002 1811.6608 L 1630.4128 1792.8192000000001 L 1638.4 1791.1808 L 1735.2704 1772.3392000000001 L 1762.9184 1765.9904000000001 L 1796.7104000000002 1760.0512 L 1839.7184000000002 1751.6544000000001 L 1854.2592000000002 1748.1728 L 1881.0880000000002 1742.0288" stroke-width="2" stroke-dasharray="3,3"></path><g><path fill="url(#horzLinePattern)" stroke="none"  d=" M 1309.4912000000002 1152 L 1331.8144 1140.736 L 1384.0384000000001 1125.7856000000002 L 1436.0576 1118.0032 L 1469.6448 1116.5696 L 1507.5328000000002 1119.4368 L 1543.5776 1097.1136000000001 L 1578.3936 1076.2240000000002 L 1617.1008000000002 1048.576 L 1627.3408000000002 1035.2640000000001 L 1621.6064000000001 1002.0864 L 1619.5584000000001 987.7504 L 1618.7392 977.3056 L 1613.2096000000001 965.2224 L 1605.632 954.7776 L 1590.2720000000002 950.4768 L 1572.0448000000001 952.32 L 1559.1424000000002 959.8976 L 1552.7936 963.3792000000001 L 1535.3856 964.8128 L 1516.7488 964.8128 L 1506.7136 966.2464 L 1497.7024000000001 971.5712000000001 L 1486.6432 982.6304 L 1469.0304 1003.7248000000001 L 1443.8400000000001 1028.5056 L 1399.1936 1050.0096 L 1329.5616 1082.3680000000002 L 1302.7328 1102.848 L 1275.4944 1109.1968000000002 L 1247.232 1104.896 L 1213.0304 1108.5824 L 1182.1056 1115.3408 L 1161.4208 1123.7376000000002 L 1121.8944000000001 1156.7104000000002 L 1104.0768 1194.3936 L 1099.9808 1229.824 L 1107.7632 1241.9072 L 1119.232 1246.8224 L 1214.4640000000002 1251.7376000000002 L 1229.0048000000002 1258.2912000000001 L 1231.6672 1264.2304000000001 L 1231.6672 1268.736 L 1235.7632 1269.76 L 1227.1616000000001 1304.7808 L 1223.68 1305.1904 L 1220.1984 1315.8400000000001 L 1212.4160000000002 1323.6224 L 1199.9232 1328.1280000000002 L 1165.9264 1331.8144 L 1138.4832000000001 1334.6816000000001 L 1123.1232 1336.5248000000001 L 1111.04 1342.0544 L 1109.1968000000002 1349.8368 L 1113.088 1365.8112 L 1117.3888 1390.3872000000001 L 1126.1952 1422.7456 L 1150.3616 1446.5024 L 1180.8768 1467.1872 L 1199.9232 1482.9568000000002 L 1217.9456 1503.0272 L 1243.5456000000001 1535.5904 L 1252.9664 1554.8416 L 1254.1952 1572.4544 L 1266.8928 1610.3424 L 1273.2416 1646.1824000000001 L 1279.3856 1666.048 L 1285.5296 1674.0352 L 1292.6976 1675.0592000000001 L 1350.8608000000002 1669.7344 L 1366.2208 1657.6512 L 1377.4848000000002 1635.9424000000001 L 1378.9184 1609.728 L 1374.8224 1581.2608 L 1372.3648 1573.6832000000002 L 1364.3776 1548.0832 L 1348.8128000000002 1516.7488 L 1333.248 1494.2208 L 1322.3936 1479.0656000000001 L 1302.7328 1458.1760000000002 L 1280.4096 1434.8288 L 1249.0752 1410.6624000000002 L 1234.5344 1391.616 L 1221.632 1369.088 L 1218.7648000000002 1353.5232 L 1223.2704 1338.7776000000001 L 1228.1856 1316.6592 L 1231.2576000000001 1304.576 L 1240.2688 1271.6032 L 1241.2928000000002 1271.6032 L 1241.7024000000001 1269.5552 L 1243.3408000000002 1266.8928 L 1267.5072 1186.816 L 1270.3744000000002 1178.0096 L 1283.0720000000001 1164.6976 L 1309.4912000000002 1152 L 1309.4912000000002 1152"></path></g><g><path fill="url(#dotPattern)" stroke="none"  d=" M 1299.8656 1743.2576000000001 L 1360.896 1739.5712 L 1350.8608000000002 1669.7344 L 1292.6976 1675.0592000000001 L 1285.5296 1674.0352 L 1279.3856 1666.048 L 1273.2416 1646.1824000000001 L 1266.8928 1610.3424 L 1254.1952 1572.4544 L 1252.5568 1554.432 L 1243.5456000000001 1535.5904 L 1218.56 1503.4368000000002 L 1199.9232 1482.9568000000002 L 1180.8768 1467.1872 L 1150.3616 1446.5024 L 1126.1952 1422.7456 L 1117.3888 1390.3872000000001 L 1113.088 1365.8112 L 1109.1968000000002 1349.8368 L 1111.04 1342.0544 L 1123.1232 1336.5248000000001 L 1138.4832000000001 1334.6816000000001 L 1165.9264 1331.8144 L 1199.9232 1328.1280000000002 L 1212.4160000000002 1323.6224 L 1220.1984 1315.8400000000001 L 1223.68 1305.1904 L 1224.0896 1303.7568 L 1189.6832000000002 1305.8048000000001 L 1001.6768000000001 1316.2496 L 1003.3152 1354.5472 L 1011.9168000000001 1402.88 L 1028.5056 1443.2256 L 1059.2256 1499.7504000000001 L 1096.2944 1544.6016 L 1152.4096 1603.7888 L 1162.24 1621.8112 L 1168.7936 1645.1584 L 1175.5520000000001 1683.8656 L 1183.9488000000001 1716.2240000000002 L 1210.9824 1732.8128000000002 L 1250.9184 1740.1856 L 1252.9664 1711.9232000000002 L 1278.5664000000002 1686.7328 L 1294.7456 1692.2624 L 1299.8656 1743.2576000000001 L 1299.8656 1743.2576000000001 M 1665.0240000000001 1095.4752 L 1717.6576 1017.0368000000001 L 1535.7952 825.344 L 1528.832 817.9712000000001 L 1507.9424000000001 832.5120000000001 L 1398.1696000000002 923.4432 L 1364.3776 938.1888 L 1354.1376 942.6944000000001 L 1216.1024 1002.7008000000001 L 1087.6928 1095.68 L 1005.7728000000001 1198.4896 L 1003.3152 1261.9776000000002 L 1017.856 1267.9168 L 1026.2528 1281.6384 L 1231.4624000000001 1272.0128 L 1231.6672 1268.736 L 1231.6672 1264.2304000000001 L 1229.0048000000002 1258.2912000000001 L 1214.4640000000002 1251.7376000000002 L 1119.232 1246.8224 L 1107.7632 1241.9072 L 1099.9808 1229.824 L 1104.0768 1194.3936 L 1121.8944000000001 1156.7104000000002 L 1161.4208 1123.7376000000002 L 1182.1056 1115.3408 L 1213.0304 1108.5824 L 1247.232 1104.896 L 1275.4944 1109.1968000000002 L 1302.7328 1102.848 L 1329.5616 1082.3680000000002 L 1399.1936 1050.0096 L 1443.8400000000001 1028.5056 L 1469.0304 1003.7248000000001 L 1486.6432 982.6304 L 1497.7024000000001 971.5712000000001 L 1506.7136 966.2464 L 1516.7488 964.8128 L 1535.3856 964.8128 L 1552.7936 963.3792000000001 L 1559.1424000000002 959.8976 L 1572.0448000000001 952.32 L 1590.2720000000002 950.4768 L 1605.632 954.7776 L 1613.2096000000001 965.2224 L 1618.7392 977.3056 L 1619.5584000000001 987.7504 L 1621.6064000000001 1002.0864 L 1627.3408000000002 1035.2640000000001 L 1617.1008000000002 1048.576 L 1578.3936 1076.2240000000002 L 1543.5776 1097.1136000000001 L 1507.5328000000002 1119.4368 L 1469.6448 1116.5696 L 1436.0576 1118.0032 L 1384.0384000000001 1125.7856000000002 L 1331.8144 1140.736 L 1309.4912000000002 1152 L 1337.9584 1176.7808 L 1360.0768 1161.8304 L 1408.8192000000001 1145.6512 L 1445.6832000000002 1139.9168 L 1510.8096 1141.3504 L 1606.6560000000002 1083.8016 L 1610.9568000000002 1081.5488 L 1615.6672 1080.9344 L 1620.1728 1081.7536 L 1625.088 1084.0064 L 1652.736 1096.704 L 1658.88 1097.1136000000001 L 1665.0240000000001 1095.4752 L 1665.0240000000001 1095.4752"></path></g><path fill="none" stroke="black"  d=" M 684.2368 839.4752000000001 L 680.7552000000001 795.4432 L 675.2256 721.9200000000001 L 669.4912 657.408 L 654.5408 512.6144 L 651.4688 485.37600000000003 M 1024.2048 827.1872000000001 L 1068.4416 823.296 L 1302.7328 801.9968 L 1311.9488000000001 801.1776 L 1331.2 799.3344000000001 L 1358.4384 796.8768 L 1382.1952 794.624 L 1451.8272000000002 788.2752 L 1518.7968 782.1312 L 1536.4096000000002 780.6976000000001 M 685.6704000000001 859.3408000000001 L 684.2368 839.4752000000001 M 1331.2 799.3344000000001 L 1326.4896 778.4448 M 1258.1658766613477 2056.3976926827822 L 1296.1792 2001.92 L 1321.3696 1968.3328000000001 L 1343.0784 1940.48 L 1371.3408000000002 1912.6272000000001 L 1394.4832000000001 1890.9184 L 1427.2512000000002 1868.3904 L 1461.0432 1848.9344 L 1500.9792 1832.5504 L 1545.6256 1818.624 L 1632.6656 1799.5776 L 1756.7744 1773.568 L 1874.1248 1749.1968000000002 L 1883.7504000000001 1747.1488000000002 M 1044.0704 666.8288 L 1051.0336 635.2896000000001 L 1056.768 603.3408000000001 L 1062.912 560.3328 L 1066.8032 517.5296000000001 L 1067.6224 483.73760000000004 L 1067.8272 454.45120000000003 L 1064.96 405.7088 L 1059.4304 363.1104 L 1050.8288 316.416 L 1038.336 268.6976 L 1025.2288 227.1232 L 995.7376 135.7824 L 973.2096 51.6096 L 958.5498058003861 -9.961535638378157 M 632.0128000000001 487.0144 L 634.2656000000001 513.6384 L 636.1088 533.2992 L 638.1568 554.1888 L 646.7584 659.2512 L 652.6976000000001 724.5824 L 656.384 763.0848000000001 L 658.2272 780.288 M 1947.0336000000002 721.5104 L 1593.344 753.8688000000001 M 927.9488 815.9232000000001 L 917.7088 817.152 L 893.7472 819.4048 L 887.808 819.8144000000001 L 814.4896 827.392 M 814.4896 827.392 L 795.2384000000001 829.2352000000001 L 693.248 838.6560000000001 L 684.2368 839.4752000000001 L 664.3712 841.1136 M 664.3712 841.1136 L 666.0096 861.1840000000001 M 1593.344 753.8688000000001 L 1554.8416 757.76 M 1536.4096000000002 780.6976000000001 L 1555.6608 779.264 M 1555.6608 779.264 L 1818.0096 756.1216000000001 L 1909.5552 748.3392 L 1992.4992000000002 740.7616 L 2011.1360000000002 739.1232 L 2026.7008 737.6896 L 2058.2018708308838 734.9635457934813 M 1554.8416 757.76 L 1539.4816 759.1936000000001 L 1522.2784000000001 760.6272 L 1355.776 775.7824 L 1346.3552 776.6016000000001 L 1326.4896 778.4448 M 664.3712 841.1136 L 651.264 842.3424 L 634.4704 843.7760000000001 L 599.6544 847.2576 L 491.3152 857.4976 L 326.45120000000003 873.6768000000001 L 317.2352 874.4960000000001 L 81.71520000000001 896.4096000000001 L 21.0944 901.7344 L 10.24 901.3248000000001 L -9.910502469511908 896.085669357927 M 1326.4896 778.4448 L 1300.2752 780.6976000000001 L 1039.5648 804.4544000000001 L 1032.192 804.864 M 1266.688 500.1216 L 1280 557.8752000000001 L 1301.9136 662.9376000000001 L 1321.9840000000002 757.3504 L 1326.4896 778.4448 M 39.321600000000004 920.1664000000001 L 83.968 915.6608 L 322.76480000000004 892.5184 L 333.0048 891.4944 L 493.9776 876.7488000000001 L 603.1360000000001 866.7136 M 685.6704000000001 859.3408000000001 L 694.8864 858.3168000000001 M 603.1360000000001 866.7136 L 636.7232 863.6416 L 652.9024000000001 862.2080000000001 L 666.0096 861.1840000000001 L 685.6704000000001 859.3408000000001 M 658.2272 780.288 L 662.7328 824.9344000000001 L 664.3712 841.1136 M 1872.2816 1721.7536 L 1760.4608 1749.4016000000001 L 1727.2832 1757.7984000000001 L 1674.6496000000002 1771.3152 L 1620.5824 1784.0128000000002 L 1579.6224 1792.6144000000002 L 1535.3856 1801.6256 L 1458.9952 1817.3952000000002 L 1409.2288 1827.0208 L 1371.136 1834.8032 L 1357.2096000000001 1837.4656 L 1324.8512 1843.6096 L 1293.5168 1850.3680000000002 L 1263.8208 1858.7648000000002 L 1243.9552 1864.4992000000002 L 1224.9088000000002 1870.2336 M 694.8864 858.3168000000001 L 721.5104 855.8592 L 731.9552 854.8352 L 815.9232000000001 846.8480000000001 L 883.9168000000001 840.4992000000001 L 890.0608000000001 839.8848 L 901.7344 839.0656 L 918.9376000000001 837.8368" stroke-width="2"></path><path fill="none" stroke="black"  d=" M 1032.192 804.864 L 927.9488 815.9232000000001 M 918.9376000000001 837.8368 L 1024.2048 827.1872000000001" stroke-width="2"></path><g transform="translate(791.7568,838.0416)"><path fill="none" stroke="black"  d=" M -30 -30 L -30 30 M -25 -30 L -25 30 M -20 -30 L -20 30 M -15 -30 L -15 30 M -10 -30 L -10 30 M -5 -30 L -5 30 M 0 -30 L 0 30 M 5 -30 L 5 30 M 10 -30 L 10 30 M 15 -30 L 15 30 M 20 -30 L 20 30 M 25 -30 L 25 30 M 30 -30 L 30 30" stroke-width="2"></path></g><g transform="translate(822.0672000000001,1144.832)"><path fill="none" stroke="black"  d=" M -30 -30 L -30 30 M -25 -30 L -25 30 M -20 -30 L -20 30 M -15 -30 L -15 30 M -10 -30 L -10 30 M -5 -30 L -5 30 M 0 -30 L 0 30 M 5 -30 L 5 30 M 10 -30 L 10 30 M 15 -30 L 15 30 M 20 -30 L 20 30 M 25 -30 L 25 30 M 30 -30 L 30 30" stroke-width="2"></path></g></g></svg>
