<svg version="1.1" xmlns="http://www.w3.org/2000/svg" xmlns:xlink="http://www.w3.org/1999/xlink" width="5000" height="5000" viewBox="0 0 5000 5000" preserveAspectRatio="xMidYMid"><defs><pattern id="horzLinePattern" width="30" height="20" patternUnits="userSpaceOnUse"><line x1="0" y1="10" x2="30" y2="5" stroke="black" stroke-width="2" fill="none"></line></pattern><pattern id="dotPattern" width="30" height="30" patternUnits="userSpaceOnUse"><circle cx="15" cy="15" r="2" stroke="black" stroke-width="2" fill="none"></circle></pattern></defs><g transform="scale(2,2)"><g><path fill="url(#dotPattern)" stroke="none" paint-order="stroke fill markers" d=" M 993.6896 874.9056 L 999.2192 905.0112 L 1003.9296 930.4064000000001 L 1042.0224 912.5888 L 1037.1072000000001 885.9648000000001 L 1031.7824 856.8832 L 993.6896 874.9056 L 993.6896 874.9056 M 1029.9392 802.816 L 1015.1936000000001 724.3776 L 952.9344000000001 754.8928000000001 L 967.8848 833.3312000000001 L 1029.9392 802.816 L 1029.9392 802.816 M 1083.8016 756.736 L 1096.2944 824.7296 L 1115.9552 815.5136 L 1103.4624000000001 747.3152 L 1083.8016 756.736 L 1083.8016 756.736 M 948.8384000000001 1080.7296000000001 L 942.2848 1042.432 L 920.576 1052.2624 L 927.3344000000001 1091.1744 L 948.8384000000001 1080.7296000000001 L 948.8384000000001 1080.7296000000001 M 935.5264000000001 1006.5920000000001 L 911.9744000000001 1017.6512 L 914.432 1031.5776 L 937.984 1020.3136000000001 L 935.5264000000001 1006.5920000000001 L 935.5264000000001 1006.5920000000001 M 890.88 975.2576 L 930.6112 956.6208 L 916.6848 888.0128000000001 L 915.0464000000001 874.2912 L 904.3968000000001 880.4352 L 895.7952 889.2416000000001 L 889.0368000000001 900.3008000000001 L 881.4592 914.432 L 877.7728000000001 927.744 L 876.1344 945.9712000000001 L 876.3392 963.9936 L 877.9776 980.7872000000001 L 890.88 975.2576 L 890.88 975.2576 M 871.6288000000001 983.2448 L 869.5808000000001 965.8368 L 869.1712 946.5856 L 871.4240000000001 925.2864000000001 L 875.9296 909.1072 L 882.2784 894.976 L 891.2896000000001 881.664 L 902.3488000000001 870.1952 L 913.2032 863.8464 L 913.8176000000001 856.4736 L 819.2 901.5296000000001 L 838.8608 1000.6528000000001 L 871.6288000000001 983.2448 L 871.6288000000001 983.2448 M 699.1872000000001 968.9088 L 686.08 875.5200000000001 L 679.5264000000001 869.1712 L 675.6352 816.3328 L 661.0944000000001 801.1776 L 516.3008 790.7328 L 504.42240000000004 799.5392 L 498.4832 815.5136 L 499.0976 920.1664000000001 L 512.4096000000001 958.8736 L 519.7824 969.1136 L 521.4208 993.8944 L 519.3728 1028.3008 L 495.0016 1088.3072 L 482.5088 1134.7968 L 476.56960000000004 1183.5392000000002 L 699.1872000000001 968.9088 L 699.1872000000001 968.9088 M 720.0768 792.9856000000001 L 733.5936 864.8704 L 726.0160000000001 881.664 L 776.192 1036.9024 L 782.5408 1065.5744 L 812.032 1048.1664 L 818.176 1045.9136 L 803.4304000000001 963.7888 L 792.9856000000001 908.0832 L 780.6976000000001 913.2032 L 768.2048000000001 847.4624 L 779.6736000000001 842.1376 L 778.4448 836.1984 L 775.9872 823.7056 L 772.096 825.5488 L 770.048 813.6704000000001 L 774.9632 811.6224000000001 L 773.7344 804.6592 L 777.4208 802.816 L 775.168 791.1424000000001 L 720.0768 792.9856000000001 L 720.0768 792.9856000000001 M 1185.5872000000002 803.84 L 1125.7856000000002 861.3888000000001 L 1139.9168 857.7024 L 1170.6368 836.1984 L 1190.5024 816.3328 L 1185.5872000000002 803.84 L 1185.5872000000002 803.84 M 927.744 966.2464 L 903.9872 977.7152000000001 L 909.5168 1007.4112 L 933.2736000000001 995.9424 L 927.744 966.2464 L 927.744 966.2464 M 830.8736 359.42400000000004 L 868.1472 551.5264000000001 L 925.2864000000001 614.6048000000001 L 953.5488 565.248 L 953.7536 547.84 L 945.9712000000001 530.2272 L 934.0928 523.264 L 921.3952 528.7936 L 885.3504 338.1248 L 865.8944 320.512 L 838.8608 335.2576 L 830.8736 359.42400000000004 L 830.8736 359.42400000000004 M 386.048 447.69280000000003 L 357.78560000000004 582.0416 L 413.08160000000004 495.0016 L 386.048 447.69280000000003 L 386.048 447.69280000000003 M 876.5440000000001 804.0448 L 882.8928000000001 838.4512000000001 L 903.3728000000001 830.2592000000001 L 907.8784 849.9200000000001 L 912.9984000000001 847.0528 L 914.0224000000001 837.2224 L 931.2256000000001 791.7568 L 927.5392 775.5776000000001 L 876.5440000000001 804.0448 L 876.5440000000001 804.0448 M 945.5616 897.6384 L 951.0912000000001 927.9488 L 957.8496 965.4272000000001 L 974.2336 957.6448 L 994.9184 947.8144000000001 L 988.1600000000001 910.5408 L 982.6304 880.2304 L 961.9456 889.856 L 945.5616 897.6384 L 945.5616 897.6384"></path></g><path fill="none" stroke="black" paint-order="fill stroke markers" d=" M 970.1376 1017.2416000000001 L 997.9904 1003.5200000000001" stroke-width="2"></path><path fill="none" stroke="black" paint-order="fill stroke markers" d=" M 311.91040000000004 571.1872000000001 L 273.408 556.4416" stroke-width="2"></path><path fill="none" stroke="black" paint-order="fill stroke markers" d=" M 470.016 206.23360000000002 L 473.2928 213.4016 L 474.7264 216.88320000000002 L 522.24 314.7776 L 570.7776 412.2624 L 606.0032 483.73760000000004" stroke-width="2"></path><path fill="none" stroke="black" paint-order="fill stroke markers" d=" M 631.1936000000001 534.528 L 631.808 536.3712 L 640 561.7664 L 659.456 674.6112 L 675.4304000000001 771.6864 L 676.2496 779.4688" stroke-width="2"></path><path fill="none" stroke="black" paint-order="fill stroke markers" d=" M 874.9056 1181.4912000000002 L 867.7376 1167.7696 L 861.5936 1151.5904 L 858.9312 1142.9888 L 856.8832 1125.9904000000001 L 852.5824 1095.2704 L 848.2816 1071.7184 L 842.1376 1039.5648" stroke-width="2"></path><path fill="none" stroke="black" paint-order="fill stroke markers" d=" M 429.4656 1623.8592 L 536.576 1567.7440000000001 L 651.0592 1506.0992 L 676.0448 1490.3296 L 699.392 1474.9696000000001 L 721.3056 1459.6096 L 743.6288000000001 1441.3824 L 785.408 1402.6752000000001 L 802.2016 1384.8576 L 826.1632000000001 1357.0048000000002 L 883.712 1285.1200000000001" stroke-width="2" stroke-dasharray="20,20"></path><path fill="none" stroke="black" paint-order="fill stroke markers" d=" M 842.1376 1039.5648 L 832.9216 1043.4560000000001 L 821.0432000000001 1051.4432000000002 L 774.144 1080.7296000000001 L 764.3136000000001 1083.392 L 754.688 1080.7296000000001 L 740.3520000000001 1060.6592 L 726.0160000000001 1030.5536" stroke-width="2"></path><path fill="none" stroke="black" paint-order="fill stroke markers" d=" M 718.4384 1013.5552 L 713.5232000000001 997.9904 L 706.7648 969.3184 L 681.984 787.456 L 680.7552000000001 779.6736000000001" stroke-width="2"></path><path fill="none" stroke="black" paint-order="fill stroke markers" d=" M 882.0736 1192.96 L 888.2176000000001 1200.5376" stroke-width="2"></path><path fill="none" stroke="black" paint-order="fill stroke markers" d=" M 717.8240000000001 780.0832 L 766.1568000000001 778.24 L 798.3104000000001 776.3968 L 828.6208 771.6864 L 861.3888000000001 763.904 L 917.0944000000001 741.7856 L 933.0688 734.6176 L 959.8976 722.9440000000001 L 966.2464 719.4624 L 978.3296 713.9328 L 1014.5792 696.9344 L 1025.8432 690.176 L 1120.6656 630.5792 L 1169.8176 591.8720000000001 L 1182.1056 582.0416" stroke-width="2"></path><path fill="none" stroke="black" paint-order="fill stroke markers" d=" M 1169.8176 591.8720000000001 L 1165.1072000000001 584.0896 L 1146.4704000000002 553.984 L 1120.256 519.168 L 1069.2608 439.91040000000004 L 1055.3344 412.2624 L 1039.3600000000001 335.4624" stroke-width="2"></path><path fill="none" stroke="black" paint-order="fill stroke markers" d=" M 897.4336000000001 1266.2784000000001 L 971.1616 1165.7216 L 1043.2512000000002 1068.4416 L 1190.5024 877.1584 L 1220.8128000000002 837.8368 L 1251.7376000000002 805.888 L 1279.3856 782.336 L 1304.1664 762.2656000000001 L 1332.8384 743.4240000000001 L 1363.3536000000001 725.6064 L 1402.6752000000001 706.9696 L 1435.8528000000001 696.1152000000001 L 1465.7536 687.5136 L 1487.872 682.5984000000001 L 1504.256 679.1168 L 1600.9216000000001 675.4304000000001 L 1694.5152 675.2256 L 1732.4032 675.0208 L 1770.0864000000001 674.2016 L 1809.2032000000002 673.5872 L 1837.4656 672.3584000000001 L 1878.2208 669.9008 L 2046.976 657.2032" stroke-width="2" stroke-dasharray="20,20"></path><path fill="none" stroke="black" paint-order="fill stroke markers" d=" M 323.3792 743.0144 L 317.8496 869.5808000000001 L 310.0672 942.4896 L 304.74240000000003 977.7152000000001 L 292.86400000000003 1031.1680000000001 L 279.96160000000003 1074.3808000000001 L 268.08320000000003 1110.6304 L 236.544 1190.2976 L 219.3408 1242.112 L 203.5712 1297.6128 L 188.6208 1363.5584000000001 L 128.4096 1800.3968 L 113.04960000000001 1891.5328000000002 L 91.3408 2021.7856000000002" stroke-width="2"></path><path fill="none" stroke="black" paint-order="fill stroke markers" d=" M 1025.8432 690.176 L 1024.4096 684.2368 L 1015.6032 645.12 L 1146.4704000000002 553.984" stroke-width="2"></path><path fill="none" stroke="black" paint-order="fill stroke markers" d=" M 888.2176000000001 1200.5376 L 897.8432 1180.2624 L 910.1312 1163.4688 L 929.3824000000001 1140.5312000000001 L 984.0640000000001 1112.064 L 984.0640000000001 1100.3904 L 979.7632000000001 1077.4528 L 970.1376 1017.2416000000001" stroke-width="2"></path><path fill="none" stroke="black" paint-order="fill stroke markers" d=" M 621.7728000000001 94.61760000000001 L 557.2608 127.1808 L 525.5168 151.34720000000002 L 500.5312 173.6704 L 470.016 206.23360000000002 L 447.07840000000004 236.3392 L 428.2368 264.6016 L 423.32160000000005 272.5888 L 408.1664 301.05600000000004 L 390.7584 339.968 L 374.1696 384.61440000000005 L 356.76160000000004 448.71680000000003 L 342.016 520.6016000000001 L 333.2096 595.3536 L 323.3792 743.0144" stroke-width="2"></path><path fill="none" stroke="black" paint-order="fill stroke markers" d=" M 676.2496 779.4688 L 634.0608000000001 778.6496000000001 L 586.9568 777.216 L 534.9376 771.4816000000001 L 500.1216 763.4944" stroke-width="2"></path><path fill="none" stroke="black" paint-order="fill stroke markers" d=" M 273.408 556.4416 L 286.72 480.66560000000004" stroke-width="2"></path><path fill="none" stroke="black" paint-order="fill stroke markers" d=" M 887.808 1309.9008000000001 L 869.3760000000001 1371.9552 L 866.7136 1403.0848 L 868.5568000000001 1423.1552000000001 L 875.1104 1440.3584 L 884.1216000000001 1448.7552 L 894.5664 1450.3936 L 903.3728000000001 1443.2256 L 915.0464000000001 1425.8176 L 932.0448 1396.5312000000001" stroke-width="2"></path><path fill="none" stroke="black" paint-order="fill stroke markers" d=" M 680.7552000000001 779.6736000000001 L 676.2496 779.4688" stroke-width="2"></path><path fill="none" stroke="black" paint-order="fill stroke markers" d=" M 680.7552000000001 779.6736000000001 L 698.368 780.0832" stroke-width="2"></path><path fill="none" stroke="black" paint-order="fill stroke markers" d=" M 890.0608000000001 1250.0992 L 889.6512 1289.2160000000001" stroke-width="2"></path><path fill="none" stroke="black" paint-order="fill stroke markers" d=" M 889.6512 1289.2160000000001 L 889.856 1294.7456" stroke-width="2"></path><path fill="none" stroke="black" paint-order="fill stroke markers" d=" M 582.1154504437615 -5.4400514333817735 L 511.3856 38.912 L 483.9424 68.4032 L 448.71680000000003 127.1808 L 375.1936 301.05600000000004 L 371.9168 308.6336 L 353.4848 368.0256 L 344.6784 408.576 L 326.0416 493.3632 L 311.91040000000004 571.1872000000001" stroke-width="2"></path><path fill="none" stroke="black" paint-order="fill stroke markers" d=" M 606.0032 483.73760000000004 L 609.8944 497.0496" stroke-width="2"></path><path fill="none" stroke="black" paint-order="fill stroke markers" d=" M 2058.230193655976 650.4063623216362 L 1907.712 656.9984000000001 L 1878.016 657.8176000000001 L 1808.384 659.456 L 1744.4864 661.2992 L 1694.9248 662.7328 L 1585.9712000000002 664.7808 L 1502.8224 673.3824000000001 L 1467.392 679.3216 L 1432.7808 689.3568 L 1402.4704000000002 700.0064 L 1362.1248 719.4624 L 1331.2 737.6896 L 1302.7328 756.736 L 1277.5424 777.0112 L 1249.4848 801.1776 L 1219.1744 832.5120000000001 L 1189.4784 872.2432 L 1041.4080000000001 1064.1408000000001 L 968.2944 1162.0352 L 896 1262.7968" stroke-width="2" stroke-dasharray="20,20"></path><path fill="none" stroke="black" paint-order="fill stroke markers" d=" M 882.0736 1281.4336 L 823.7056 1353.5232 L 800.1536 1380.1472 L 783.1552 1397.5552 L 741.9904 1436.2624 L 719.2576 1454.4896 L 697.7536 1470.0544 L 675.0208 1484.5952 L 650.0352 1500.7744 L 535.3472 1562.2144 L 428.4416 1619.1488000000002" stroke-width="2" stroke-dasharray="20,20"></path><path fill="none" stroke="black" paint-order="fill stroke markers" d=" M 609.8944 497.0496 L 611.7376 500.32640000000004" stroke-width="2"></path><path fill="none" stroke="black" paint-order="fill stroke markers" d=" M 932.0448 1396.5312000000001 L 946.5856 1381.7856000000002 L 965.2224 1372.9792 L 983.2448 1370.9312 L 996.5568000000001 1374.8224 L 1008.4352 1386.2912000000001 L 1019.904 1406.1568 L 1026.2528 1428.6848 L 1029.1200000000001 1507.1232 L 1029.7344 1523.5072 L 1033.8304 1534.3616000000002" stroke-width="2"></path><path fill="none" stroke="black" paint-order="fill stroke markers" d=" M 273.408 556.4416 L 238.79680000000002 543.3344000000001" stroke-width="2"></path><path fill="none" stroke="black" paint-order="fill stroke markers" d=" M -10.090581483949016 610.8138813800451 L 45.056000000000004 620.3392 L 84.7872 618.496 L 119.39840000000001 616.2432 L 146.8416 617.472 L 154.41920000000002 618.496 L 174.28480000000002 624.8448000000001 L 233.06240000000003 655.5648 L 256 677.6832 L 277.29920000000004 703.8976 L 305.152 736.0512 L 323.3792 743.0144" stroke-width="2"></path><path fill="none" stroke="black" paint-order="fill stroke markers" d=" M 889.856 1294.7456 L 877.9776 1317.4784 L 861.5936 1351.68 L 820.0192000000001 1432.1664 L 785.8176000000001 1493.8112 L 752.64 1584.9472 L 724.5824 1662.3616000000002 L 640.6144 1833.5744000000002 L 602.1120000000001 1905.2544 L 596.1728 1912.832 L 537.8048 1985.7408 L 503.1936 2031.2064 L 490.8082581353333 2057.2473752026326" stroke-width="2"></path><path fill="none" stroke="black" paint-order="fill stroke markers" d=" M 889.856 1294.7456 L 887.808 1309.9008000000001" stroke-width="2"></path><path fill="none" stroke="black" paint-order="fill stroke markers" d=" M 888.2176000000001 1200.5376 L 890.88 1224.4992 L 890.0608000000001 1250.0992" stroke-width="2"></path><path fill="none" stroke="black" paint-order="fill stroke markers" d=" M 323.3792 743.0144 L 332.3904 743.6288000000001 L 333.61920000000003 743.6288000000001 L 399.5648 745.472 L 426.8032 747.9296 L 456.2944 753.2544" stroke-width="2"></path><path fill="none" stroke="black" paint-order="fill stroke markers" d=" M 456.2944 753.2544 L 500.1216 763.4944" stroke-width="2"></path><path fill="none" stroke="black" paint-order="fill stroke markers" d=" M 611.7376 500.32640000000004 L 631.1936000000001 534.528" stroke-width="2"></path><path fill="none" stroke="black" paint-order="fill stroke markers" d=" M 883.712 1285.1200000000001 L 897.4336000000001 1266.2784000000001" stroke-width="2" stroke-dasharray="20,20"></path><path fill="none" stroke="black" paint-order="fill stroke markers" d=" M 882.0736 1192.96 L 874.9056 1181.4912000000002" stroke-width="2"></path><path fill="none" stroke="black" paint-order="fill stroke markers" d=" M 698.368 780.0832 L 717.8240000000001 780.0832" stroke-width="2"></path><path fill="none" stroke="black" paint-order="fill stroke markers" d=" M 896 1262.7968 L 882.0736 1281.4336" stroke-width="2" stroke-dasharray="20,20"></path><path fill="none" stroke="black" paint-order="fill stroke markers" d=" M 726.0160000000001 1030.5536 L 718.4384 1013.5552" stroke-width="2"></path><g transform="translate(818.3808,779.8784)"><path fill="none" stroke="black" paint-order="fill stroke markers" d=" M -30 -30 L -30 30 M -25 -30 L -25 30 M -20 -30 L -20 30 M -15 -30 L -15 30 M -10 -30 L -10 30 M -5 -30 L -5 30 M 0 -30 L 0 30 M 5 -30 L 5 30 M 10 -30 L 10 30 M 15 -30 L 15 30 M 20 -30 L 20 30 M 25 -30 L 25 30 M 30 -30 L 30 30" stroke-width="2"></path></g><g transform="translate(827.392,760.832)"><path fill="none" stroke="black" paint-order="fill stroke markers" d=" M -30 -30 L -30 30 M -25 -30 L -25 30 M -20 -30 L -20 30 M -15 -30 L -15 30 M -10 -30 L -10 30 M -5 -30 L -5 30 M 0 -30 L 0 30 M 5 -30 L 5 30 M 10 -30 L 10 30 M 15 -30 L 15 30 M 20 -30 L 20 30 M 25 -30 L 25 30 M 30 -30 L 30 30" stroke-width="2"></path></g></g></svg>
